<svg xmlns="http://www.w3.org/2000/svg" width="46" height="5" fill="none"><path fill="#8E8F99" d="M1.609.515v4.266H.73V.515h.879Zm1.7 1.822v.686h-1.94v-.686h1.94ZM3.512.515v.688H1.37V.515h2.144Zm4.014 2.033v.202c0 .325-.044.616-.132.873a1.92 1.92 0 0 1-.372.66c-.16.18-.352.317-.574.413a1.83 1.83 0 0 1-.736.143c-.267 0-.512-.048-.735-.143a1.648 1.648 0 0 1-.574-.413 1.93 1.93 0 0 1-.378-.66 2.697 2.697 0 0 1-.132-.873v-.202c0-.326.044-.617.132-.873a1.92 1.92 0 0 1 .372-.659C4.56.834 4.75.696 4.972.6c.223-.096.468-.144.736-.144.269 0 .514.048.735.144.223.096.414.234.574.416.162.182.287.401.375.66.09.255.135.546.135.872Zm-.888.202v-.208c0-.226-.02-.425-.061-.597a1.296 1.296 0 0 0-.182-.434.784.784 0 0 0-.293-.264.838.838 0 0 0-.395-.09c-.149 0-.28.03-.396.09a.791.791 0 0 0-.29.264 1.336 1.336 0 0 0-.179.434 2.592 2.592 0 0 0-.061.597v.208c0 .225.02.424.061.598.041.172.102.317.182.437a.81.81 0 0 0 .293.266c.115.06.247.091.395.091.149 0 .28-.03.396-.09a.787.787 0 0 0 .29-.267c.078-.12.138-.265.179-.437.04-.174.061-.373.061-.598Zm3.741.914a.563.563 0 0 0-.035-.205.388.388 0 0 0-.123-.17 1.09 1.09 0 0 0-.255-.155 3.602 3.602 0 0 0-.425-.158 5.375 5.375 0 0 1-.55-.211 2.262 2.262 0 0 1-.457-.272 1.228 1.228 0 0 1-.31-.367 1.01 1.01 0 0 1-.112-.483 1 1 0 0 1 .117-.483c.078-.147.187-.272.328-.375.14-.106.307-.187.498-.244.194-.056.405-.085.636-.085.314 0 .589.057.823.17.234.114.416.269.545.466.13.197.196.423.196.677h-.873a.658.658 0 0 0-.079-.328.535.535 0 0 0-.234-.226.835.835 0 0 0-.393-.082.909.909 0 0 0-.38.07.508.508 0 0 0-.23.185.454.454 0 0 0-.075.258c0 .072.017.138.052.196a.594.594 0 0 0 .165.164c.072.051.16.099.266.144.106.045.228.089.366.132.233.07.437.149.613.237.177.088.326.186.445.296.12.11.209.233.27.372.06.139.09.296.09.472a1.024 1.024 0 0 1-.422.87c-.136.101-.3.178-.489.231a2.37 2.37 0 0 1-.636.08c-.21 0-.419-.028-.624-.083a1.895 1.895 0 0 1-.56-.255 1.285 1.285 0 0 1-.398-.433c-.1-.176-.149-.384-.149-.624h.882c0 .133.02.245.061.337a.563.563 0 0 0 .173.222.742.742 0 0 0 .27.123c.105.026.22.038.345.038a.937.937 0 0 0 .375-.064.462.462 0 0 0 .293-.437ZM13.764.515v4.266h-.876V.515h.876Zm1.313 0v.688h-3.48V.515h3.48Zm3.363 3.58v.686h-2.27v-.686h2.27ZM16.456.515v4.266h-.878V.515h.878Zm1.688 1.737v.668h-1.975v-.668h1.975Zm.293-1.737v.688h-2.268V.515h2.268Zm.516 0h1.59c.327 0 .607.049.841.146.237.098.418.243.545.434.127.192.19.427.19.706 0 .229-.038.425-.117.589a1.101 1.101 0 0 1-.325.407 1.686 1.686 0 0 1-.489.258l-.278.147h-1.383l-.006-.686h1.028a.804.804 0 0 0 .384-.082.537.537 0 0 0 .229-.229.703.703 0 0 0 .079-.34.773.773 0 0 0-.076-.354.514.514 0 0 0-.232-.228.854.854 0 0 0-.39-.08h-.712v3.578h-.878V.515Zm2.384 4.266-.972-1.902.929-.006.984 1.867v.04h-.94Zm4.615-1.52h-1.087v-.686h1.087a.89.89 0 0 0 .41-.082.526.526 0 0 0 .231-.235.86.86 0 0 0 0-.691.592.592 0 0 0-.231-.264.76.76 0 0 0-.41-.1h-.783v3.578h-.878V.515h1.66c.335 0 .62.06.86.182.24.119.423.284.55.495.127.21.19.452.19.723 0 .276-.063.514-.19.715-.127.201-.31.357-.55.466-.24.11-.525.164-.86.164Zm5.068.834v.686h-2.27v-.686h2.27ZM29.037.515v4.266h-.88V.515h.88Zm1.687 1.737v.668H28.75v-.668h1.974Zm.293-1.737v.688H28.75V.515h2.267Zm2.482 0v4.266h-.876V.515h.876Zm1.312 0v.688h-3.48V.515h3.48Zm3.363 3.58v.686h-2.27v-.686h2.27ZM36.191.515v4.266h-.879V.515h.879Zm1.687 1.737v.668h-1.974v-.668h1.974Zm.293-1.737v.688h-2.267V.515h2.267Zm.516 0h1.59c.327 0 .607.049.842.146.236.098.418.243.545.434.127.192.19.427.19.706 0 .229-.04.425-.117.589a1.103 1.103 0 0 1-.325.407 1.687 1.687 0 0 1-.49.258l-.278.147h-1.383l-.006-.686h1.029a.804.804 0 0 0 .383-.082.538.538 0 0 0 .229-.229.705.705 0 0 0 .08-.34.771.771 0 0 0-.077-.354.514.514 0 0 0-.232-.228.854.854 0 0 0-.39-.08h-.711v3.578h-.879V.515Zm2.385 4.266-.973-1.902.929-.006.984 1.867v.04h-.94Zm3.68-1.117a.565.565 0 0 0-.036-.205.388.388 0 0 0-.123-.17 1.091 1.091 0 0 0-.255-.155 3.605 3.605 0 0 0-.424-.158 5.37 5.37 0 0 1-.551-.211 2.261 2.261 0 0 1-.457-.272 1.228 1.228 0 0 1-.31-.367 1.01 1.01 0 0 1-.112-.483 1 1 0 0 1 .117-.483c.078-.147.188-.272.328-.375.14-.106.307-.187.498-.244.194-.056.406-.085.636-.085.314 0 .589.057.823.17.235.114.416.269.545.466.131.197.196.423.196.677h-.873a.658.658 0 0 0-.079-.328.535.535 0 0 0-.234-.226.836.836 0 0 0-.393-.082.908.908 0 0 0-.38.07.507.507 0 0 0-.229.185.454.454 0 0 0-.076.258c0 .072.017.138.053.196a.594.594 0 0 0 .164.164c.072.051.16.099.266.144.106.045.228.089.366.132.233.07.437.149.613.237.177.088.326.186.445.296.12.11.209.233.27.372.06.139.09.296.09.472a1.024 1.024 0 0 1-.422.87c-.136.101-.3.178-.489.231-.19.053-.401.08-.636.08-.21 0-.418-.028-.623-.083a1.896 1.896 0 0 1-.56-.255 1.285 1.285 0 0 1-.398-.433c-.1-.176-.15-.384-.15-.624h.882c0 .133.02.245.061.337a.562.562 0 0 0 .173.222.742.742 0 0 0 .27.123c.105.026.22.038.346.038a.937.937 0 0 0 .374-.064.463.463 0 0 0 .294-.437Z"/></svg>